<?xml version="1.0" encoding="utf-8"?>
<!-- Generator: Adobe Illustrator 19.0.0, SVG Export Plug-In . SVG Version: 6.00 Build 0)  -->
<svg version="1.1" id="Слой_1" xmlns="http://www.w3.org/2000/svg" xmlns:xlink="http://www.w3.org/1999/xlink" x="0px" y="0px" viewBox="0 0 595.8 180.7" style="enable-background:new 0 0 595.8 180.7;" xml:space="preserve">
  <style type="text/css">
  .st0 {
    fill: #FFFFFF;
  }
  </style>
  <g id="XMLID_28_">
    <g id="XMLID_139_">
      <path id="XMLID_140_" class="st0" d="M174.9,114.7c2.8-2.1,4.2-5.1,4.2-8.8c0-5.6-3.2-8.4-9.6-8.4h-17l9.5-23.3h10.9
			c4.9,0,8.7-1.1,11.5-3.2c2.8-2.1,4.2-5.1,4.2-8.8c0-5.6-3.2-8.4-9.5-8.4h-8.9l14.5-35.7c1.7-4.1,2.5-7.1,2.5-9.1
			c0-2.5-0.9-4.6-2.8-6.3c-1.9-1.7-4.2-2.6-6.8-2.6c-6.2,0-10.8,3.5-13.7,10.5l-1,2.6l-16.5,40.6h-27.2l14.7-36.2
			c1.6-3.9,2.4-6.9,2.4-8.8c0-2.4-0.9-4.4-2.8-6.1c-1.9-1.7-4.2-2.5-7-2.5c-6.1,0-10.6,3.4-13.5,10.2l-0.9,2.5L95.4,53.8l-3.8,0.1
			l-12.1,0.3c-9,0-18.1,1.5-27.4,4.4c-9.3,2.9-17.5,6.8-24.5,11.8c-8.3,5.9-14.7,13-19.3,21.2c-4.6,8.2-6.8,16.8-6.8,25.8
			c0,11.7,3.9,21.3,11.7,28.8c7.8,7.5,17.8,11.3,29.8,11.3c22.7,0,39.8-14.1,51.2-42.3l16.6-40.9h27.2l-7.1,17.3l-1.4,3.3
			c-1.3,3.2-2,6.1-2,8.9c0,4.4,1.6,7.8,4.9,10.4c3.2,2.5,7.6,3.8,13.1,3.8h17.5C168.2,117.9,172.1,116.9,174.9,114.7z M74.1,106.1
			c-7.9,19.5-17.9,29.3-30,29.3c-5.5,0-10-2-13.6-5.8c-3.6-3.9-5.4-8.8-5.4-14.7c0-5,1.5-10.1,4.5-15.3c3-5.2,7.1-9.8,12.4-13.7
			C52.2,78,65.7,74.2,82.5,74.2h4.6L74.1,106.1z M255.4,52.6c-5.8,0-10,3.2-12.7,9.6l-0.9,2.4l-11.4,27.9c-0.7,1.9-2.5,3.7-5.2,5.2
			c-2.7,1.5-5.4,2.3-8,2.3c-3.7,0-5.5-1.4-5.3-4.2c0.1-1,0.7-3.1,2-6.4l8.4-20.4c1.5-3.7,2.2-6.4,2.2-8c0-2.4-0.8-4.5-2.5-6.1
			c-1.7-1.6-3.8-2.4-6.3-2.4c-5.7,0-10,3.2-12.7,9.6l-0.9,2.4l-9.3,23c-2.4,6-3.7,10.6-3.7,13.6c0,5,1.9,9,5.7,12.1
			c3.8,3.1,8.7,4.7,14.8,4.7c3.5,0,7.4-0.9,11.6-2.6l-2.5,6.1h-13.9c-11.8,0-20.7,1.4-26.7,4.2c-5.2,2.4-9.5,6.1-12.7,11
			c-3.2,4.9-4.8,10.1-4.8,15.8c0,8.1,3,14.9,8.9,20.3c5.9,5.5,13.2,8.2,21.9,8.2c14.3,0,25.3-7.1,32.8-21.3c4.3-8.1,7.3-14.6,9-19.5
			H247c4.6,0,8.1-1,10.6-2.9c2.5-1.9,3.8-4.6,3.8-8.1c0-5.1-3.6-7.6-10.8-7.6h-9.9l21.3-52.3l1-2.3c0.9-2.2,1.3-4.1,1.3-5.7
			c0-2.4-0.8-4.4-2.5-6C260,53.4,257.9,52.6,255.4,52.6z M202.1,157.1c-3.2,3.2-6.9,4.9-11.1,4.9c-3,0-5.4-0.9-7.2-2.6
			c-1.8-1.8-2.7-4.1-2.7-7c0-8.2,6.5-12.3,19.6-12.3h12C208.8,148.2,205.3,153.9,202.1,157.1z M335.2,99.3h-9.7l33.6-82.7l1-2.3
			c0.9-2.2,1.3-4.2,1.3-6c0-2.3-0.9-4.2-2.6-5.8c-1.7-1.6-3.8-2.3-6.2-2.3c-5.8,0-10.3,4-13.6,12l-19,46.7c-4.1-5-9.6-7.4-16.5-7.4
			c-9.3,0-17.7,4.4-25.2,13.1c-7.5,8.8-11.2,18.6-11.2,29.6c0,7.2,1.9,12.9,5.7,17.2c3.8,4.3,8.8,6.5,15.2,6.5h10.8
			c4.2,0,8.1-1.8,11.7-5.5c2,3.6,5.3,5.5,9.7,5.5h11.5c4.5,0,8-1,10.6-2.9c2.6-1.9,3.8-4.6,3.8-8.1
			C346.1,101.8,342.5,99.3,335.2,99.3z M311.7,79.2L305.3,95c-1.3,3.1-3.8,4.7-7.8,4.7h-3.2c-4.8,0-7.2-2.5-7.2-7.6
			c0-5.7,1.9-11.1,5.8-16.1c3.8-5,8-7.4,12.4-7.4c2.2,0,4,0.6,5.4,1.8c1.5,1.2,2.2,2.6,2.2,4.4C312.9,75.8,312.5,77.3,311.7,79.2z
			 M406.3,99.3h-10.8c-5.2,0-7.9-2.4-7.9-7.1c0-4.7,4.5-11.4,13.6-20.1l0.9-0.9c9.4,0,14.2-3.6,14.2-10.8c0-5.2-3.7-7.9-11.2-7.9
			h-20c-2.7,0-4.4-0.2-5-0.5c-0.7-0.3-1.2-1.2-1.5-2.6l-0.7-2.6c-1-4-3.6-6-7.8-6c-4.3,0-7.6,2.9-9.9,8.6l-9.6,23.8
			c-1.3,3.1-1.9,5.4-1.9,6.7c0,2.3,0.9,4.2,2.6,5.7c1.7,1.5,3.8,2.3,6.4,2.3c4.2,0,7.6-3.2,10.2-9.6l2.9-7.2h8.9
			c-4.9,5.5-8.3,10.1-10.2,13.8c-1.9,3.8-2.9,7.6-2.9,11.6c0,6.3,1.8,11.4,5.4,15.3c3.6,3.9,8.3,5.9,14,5.9h16.7
			c4.6,0,8.1-1,10.6-2.9c2.5-1.9,3.8-4.7,3.8-8.2C417.1,101.8,413.5,99.3,406.3,99.3z M460.4,51.4c-10.6,0-19.9,4-27.7,11.9
			c-7.8,7.9-11.7,17.3-11.7,28.1c0,10.2,3.8,18,11.4,23.2c3.2,2.2,9.5,3.3,18.8,3.3c5.7,0,10.1-0.4,13.3-1.3
			c3.2-0.9,6.2-2.5,9.2-4.8c4.4-3.6,8.1-8.4,10.8-14.4c2.8-6,4.2-12.1,4.2-18.1c0-8.1-2.7-14.7-8-20C475.4,54,468.7,51.4,460.4,51.4
			z M462.7,95.5c-2.3,2.7-5.7,4-10,4c-7.4,0-11.1-3.3-11.1-9.9c0-5,1.7-9.6,5.2-13.7c3.5-4.2,7.3-6.2,11.5-6.2c3,0,5.5,1,7.3,3
			c1.9,2,2.8,4.6,2.8,7.9C468.5,86.1,466.6,91.1,462.7,95.5z M532.8,51.4c-10.6,0-19.9,4-27.7,11.9c-7.8,7.9-11.7,17.3-11.7,28.1
			c0,10.2,3.8,18,11.4,23.2c3.2,2.2,9.5,3.3,18.8,3.3c5.7,0,10.1-0.4,13.3-1.3c3.2-0.9,6.2-2.5,9.2-4.8c4.4-3.6,8.1-8.4,10.8-14.4
			c2.8-6,4.2-12.1,4.2-18.1c0-8.1-2.7-14.7-8-20C547.8,54,541.1,51.4,532.8,51.4z M535.1,95.5c-2.3,2.7-5.7,4-10,4
			c-7.4,0-11.1-3.3-11.1-9.9c0-5,1.7-9.6,5.2-13.7c3.5-4.2,7.3-6.2,11.5-6.2c3,0,5.5,1,7.3,3c1.9,2,2.8,4.6,2.8,7.9
			C540.9,86.1,539,91.1,535.1,95.5z M590.8,99.9c-2.3-2.3-5.1-3.5-8.4-3.5c-3.3,0-6.1,1.2-8.5,3.5c-2.3,2.3-3.5,5.1-3.5,8.4
			c0,3.3,1.2,6.1,3.5,8.5c2.3,2.3,5.2,3.5,8.5,3.5c3.2,0,6-1.2,8.4-3.5c2.3-2.3,3.5-5.2,3.5-8.5C594.3,105,593.1,102.2,590.8,99.9z" />
    </g>
  </g>
</svg>
