<?xml version="1.0" encoding="iso-8859-1"?>
<!-- Generator: Adobe Illustrator 19.0.0, SVG Export Plug-In . SVG Version: 6.00 Build 0)  -->
<svg version="1.1" id="&#x421;&#x43B;&#x43E;&#x439;_1"
	 xmlns="http://www.w3.org/2000/svg" xmlns:xlink="http://www.w3.org/1999/xlink" x="0px" y="0px" viewBox="0 0 154.283 98.015"
	 style="enable-background:new 0 0 154.283 98.015;" xml:space="preserve">
<g id="g_x2B__3_">
	<polygon id="XMLID_125_" style="fill-rule:evenodd;clip-rule:evenodd;fill:#FFFFFF;" points="137.17,40.476 137.17,23.363 
		124.968,23.363 124.968,40.476 107.855,40.476 107.855,52.678 124.968,52.678 124.968,69.791 137.17,69.791 137.17,52.678 
		154.283,52.678 154.283,40.476 	"/>
	<path id="XMLID_124_" style="fill-rule:evenodd;clip-rule:evenodd;fill:#FFFFFF;" d="M49.075,39.18l0,19.568h26.216
		c-0.811,4.113-2.457,7.886-5.375,11.07c-10.51,11.47-30.102,11.354-41.316-0.19c-11.215-11.545-11.092-30.159,0.274-41.55
		c10.811-10.834,28.228-11.3,38.758-0.999L67.612,27.1l14.29-14.29C62.762-4.604,33.235-4.335,14.598,14.055
		c-19.28,19.022-19.488,50.108-0.466,69.387c19.022,19.28,52.005,19.472,69.831,0.318C94.722,72.2,97.817,55.619,95.251,39.18
		H49.075z"/>
</g>
<g id="XMLID_14_">
</g>
<g id="XMLID_15_">
</g>
<g id="XMLID_16_">
</g>
<g id="XMLID_17_">
</g>
<g id="XMLID_18_">
</g>
<g id="XMLID_19_">
</g>
</svg>
