<?xml version="1.0" encoding="iso-8859-1"?>
<!-- Generator: Adobe Illustrator 19.0.0, SVG Export Plug-In . SVG Version: 6.00 Build 0)  -->
<svg version="1.1" id="&#x421;&#x43B;&#x43E;&#x439;_1"
	 xmlns="http://www.w3.org/2000/svg" xmlns:xlink="http://www.w3.org/1999/xlink" x="0px" y="0px" viewBox="0 0 130.122 130.122"
	 style="enable-background:new 0 0 130.122 130.122;" xml:space="preserve">
<g id="instagram_3_">
	<path id="XMLID_121_" style="fill:#FFFFFF;" d="M65.061,11.723c17.372,0,19.43,0.066,26.29,0.379
		c6.343,0.29,9.788,1.349,12.081,2.24c3.037,1.18,5.204,2.59,7.481,4.867c2.277,2.277,3.687,4.444,4.867,7.481
		c0.891,2.293,1.951,5.738,2.24,12.081c0.313,6.861,0.379,8.918,0.379,26.29c0,17.372-0.066,19.43-0.379,26.29
		c-0.289,6.343-1.349,9.788-2.24,12.081c-1.18,3.037-2.59,5.204-4.867,7.481c-2.277,2.277-4.444,3.687-7.481,4.867
		c-2.293,0.891-5.738,1.951-12.081,2.24c-6.86,0.313-8.917,0.379-26.29,0.379s-19.431-0.066-26.29-0.379
		c-6.343-0.289-9.788-1.349-12.081-2.24c-3.037-1.18-5.204-2.59-7.481-4.867c-2.277-2.277-3.687-4.444-4.867-7.481
		c-0.891-2.293-1.951-5.738-2.24-12.081c-0.313-6.861-0.379-8.918-0.379-26.29c0-17.372,0.066-19.43,0.379-26.29
		c0.289-6.343,1.349-9.788,2.24-12.081c1.18-3.037,2.59-5.204,4.867-7.481c2.277-2.277,4.444-3.687,7.481-4.867
		c2.293-0.891,5.738-1.951,12.081-2.24C45.631,11.789,47.689,11.723,65.061,11.723 M65.061,0C47.391,0,45.176,0.075,38.236,0.392
		c-6.925,0.316-11.655,1.416-15.793,3.024c-4.278,1.663-7.907,3.887-11.524,7.504s-5.842,7.245-7.504,11.524
		c-1.608,4.139-2.708,8.868-3.024,15.793C0.075,45.176,0,47.391,0,65.061c0,17.669,0.075,19.885,0.391,26.824
		c0.316,6.925,1.416,11.655,3.024,15.793c1.663,4.278,3.887,7.907,7.504,11.524c3.617,3.617,7.245,5.842,11.524,7.504
		c4.139,1.608,8.868,2.708,15.793,3.024c6.939,0.317,9.155,0.391,26.824,0.391s19.885-0.075,26.825-0.391
		c6.925-0.316,11.654-1.416,15.793-3.024c4.278-1.663,7.907-3.887,11.524-7.504c3.617-3.617,5.842-7.245,7.504-11.524
		c1.608-4.138,2.708-8.868,3.024-15.793c0.317-6.939,0.391-9.155,0.391-26.824s-0.075-19.885-0.391-26.825
		c-0.316-6.925-1.416-11.654-3.024-15.793c-1.663-4.278-3.887-7.907-7.504-11.524c-3.617-3.617-7.245-5.842-11.524-7.504
		c-4.139-1.608-8.868-2.708-15.793-3.024C84.946,0.075,82.73,0,65.061,0L65.061,0z"/>
	<path id="XMLID_118_" style="fill:#FFFFFF;" d="M65.061,31.651c-18.452,0-33.41,14.958-33.41,33.41s14.958,33.41,33.41,33.41
		s33.41-14.958,33.41-33.41S83.513,31.651,65.061,31.651z M65.061,86.748c-11.977,0-21.687-9.71-21.687-21.687
		s9.71-21.687,21.687-21.687s21.687,9.71,21.687,21.687S77.038,86.748,65.061,86.748z"/>
	<circle id="XMLID_117_" style="fill:#FFFFFF;" cx="99.791" cy="30.331" r="7.807"/>
</g>
<g id="XMLID_14_">
</g>
<g id="XMLID_15_">
</g>
<g id="XMLID_16_">
</g>
<g id="XMLID_17_">
</g>
<g id="XMLID_18_">
</g>
<g id="XMLID_19_">
</g>
</svg>
