<?xml version="1.0" encoding="iso-8859-1"?>
<!-- Generator: Adobe Illustrator 19.0.0, SVG Export Plug-In . SVG Version: 6.00 Build 0)  -->
<svg version="1.1" id="&#x421;&#x43B;&#x43E;&#x439;_1"
	 xmlns="http://www.w3.org/2000/svg" xmlns:xlink="http://www.w3.org/1999/xlink" x="0px" y="0px" viewBox="0 0 64.484 62.681"
	 style="enable-background:new 0 0 64.484 62.681;" xml:space="preserve">
<path id="XMLID_48_" style="fill-rule:evenodd;clip-rule:evenodd;fill:none;" d="M17.173,3.084
	c-1.224-3.283-2.589-2.795-3.532-2.832c-0.942-0.032-2.014-0.21-3.091-0.249C9.474-0.038,7.708,0.302,6.169,1.861
	c-1.541,1.56-5.859,5.311-6.157,13.259c-0.297,7.944,5.201,15.841,5.968,16.947c0.767,1.109,10.5,18.334,26.674,25.418
	c16.177,7.082,16.262,4.923,19.23,4.764c2.97-0.157,9.701-3.551,11.19-7.269c1.488-3.719,1.607-6.953,1.229-7.641
	c-0.379-0.688-1.439-1.135-3.024-2.001c-1.586-0.869-9.377-5.073-10.838-5.667c-1.461-0.593-2.526-0.902-3.665,0.674
	c-1.138,1.572-4.37,5.095-5.349,6.138c-0.984,1.043-1.93,1.14-3.517,0.27c-1.582-0.866-6.724-2.768-12.686-8.5
	c-4.64-4.461-7.683-9.869-8.565-11.52c-0.883-1.653-0.006-2.495,0.832-3.268c0.753-0.698,1.687-1.828,2.53-2.74
	c0.84-0.912,1.137-1.574,1.716-2.632c0.578-1.058,0.345-2.011-0.029-2.834C21.33,14.438,18.398,6.367,17.173,3.084z"/>
<g id="XMLID_14_">
</g>
<g id="XMLID_15_">
</g>
<g id="XMLID_16_">
</g>
<g id="XMLID_17_">
</g>
<g id="XMLID_18_">
</g>
<g id="XMLID_19_">
</g>
</svg>
