<?xml version="1.0" encoding="iso-8859-1"?>
<!-- Generator: Adobe Illustrator 19.0.0, SVG Export Plug-In . SVG Version: 6.00 Build 0)  -->
<svg version="1.1" id="&#x421;&#x43B;&#x43E;&#x439;_1"
	 xmlns="http://www.w3.org/2000/svg" xmlns:xlink="http://www.w3.org/1999/xlink" x="0px" y="0px" viewBox="0 0 112.864 145.793"
	 style="enable-background:new 0 0 112.864 145.793;" xml:space="preserve">
<path id="pinterest_3_" style="fill:#FFFFFF;" d="M59.847,0C20.061,0,0,28.526,0,52.314C0,66.716,5.453,79.53,17.149,84.307
	c1.917,0.784,3.635,0.027,4.193-2.096c0.387-1.472,1.301-5.178,1.71-6.72c0.561-2.101,0.342-2.837-1.205-4.669
	c-3.371-3.979-5.528-9.129-5.528-16.423c0-21.162,15.835-40.107,41.231-40.107c22.49,0,34.843,13.741,34.843,32.092
	c0,24.146-10.685,44.525-26.549,44.525c-8.761,0-15.318-7.245-13.215-16.13c2.515-10.611,7.392-22.058,7.392-29.717
	c0-6.856-3.679-12.572-11.294-12.572c-8.957,0-16.15,9.265-16.15,21.677c0,7.903,2.67,13.25,2.67,13.25s-9.164,38.833-10.771,45.631
	c-3.199,13.544-0.481,30.149-0.252,31.825c0.134,0.994,1.413,1.229,1.99,0.478c0.826-1.078,11.494-14.246,15.118-27.404
	c1.026-3.725,5.892-23.018,5.892-23.018c2.91,5.549,11.414,10.438,20.456,10.438c26.92,0,45.184-24.543,45.184-57.393
	C112.864,23.133,91.824,0,59.847,0z"/>
<g id="XMLID_14_">
</g>
<g id="XMLID_15_">
</g>
<g id="XMLID_16_">
</g>
<g id="XMLID_17_">
</g>
<g id="XMLID_18_">
</g>
<g id="XMLID_19_">
</g>
</svg>
