<?xml version="1.0" encoding="iso-8859-1"?>
<!-- Generator: Adobe Illustrator 19.0.0, SVG Export Plug-In . SVG Version: 6.00 Build 0)  -->
<svg version="1.1" id="&#x421;&#x43B;&#x43E;&#x439;_1"
	 xmlns="http://www.w3.org/2000/svg" xmlns:xlink="http://www.w3.org/1999/xlink" x="0px" y="0px" viewBox="0 0 139.523 113.388"
	 style="enable-background:new 0 0 139.523 113.388;" xml:space="preserve">
<path id="twitter_3_" style="fill:#FFFFFF;" d="M139.523,13.421c-5.133,2.276-10.65,3.817-16.44,4.509
	c5.909-3.544,10.449-9.152,12.586-15.838c-5.531,3.282-11.657,5.663-18.177,6.947C112.27,3.475,104.83,0,96.598,0
	C80.789,0,67.972,12.816,67.972,28.624c0,2.245,0.253,4.429,0.741,6.523c-23.79-1.193-44.882-12.589-59-29.906
	c-2.464,4.227-3.876,9.143-3.876,14.389c0,9.931,5.054,18.694,12.734,23.826c-4.692-0.149-9.106-1.435-12.965-3.581
	c-0.003,0.12-0.003,0.241-0.003,0.361c0,13.868,9.867,25.438,22.962,28.068c-2.402,0.654-4.932,1.004-7.541,1.004
	c-1.844,0-3.638-0.179-5.386-0.513c3.643,11.37,14.215,19.647,26.74,19.877c-9.796,7.679-22.139,12.256-35.549,12.256
	c-2.311,0-4.59-0.136-6.829-0.402c12.668,8.124,27.714,12.863,43.879,12.863c52.651,0,81.444-43.619,81.444-81.445
	c0-1.241-0.028-2.474-0.083-3.703C130.833,24.203,135.686,19.163,139.523,13.421z"/>
<g id="XMLID_14_">
</g>
<g id="XMLID_15_">
</g>
<g id="XMLID_16_">
</g>
<g id="XMLID_17_">
</g>
<g id="XMLID_18_">
</g>
<g id="XMLID_19_">
</g>
</svg>
