<?xml version="1.0" encoding="iso-8859-1"?>
<!-- Generator: Adobe Illustrator 19.0.0, SVG Export Plug-In . SVG Version: 6.00 Build 0)  -->
<svg version="1.1" id="&#x421;&#x43B;&#x43E;&#x439;_1"
	 xmlns="http://www.w3.org/2000/svg" xmlns:xlink="http://www.w3.org/1999/xlink" x="0px" y="0px" viewBox="0 0 139.851 97.475"
	 style="enable-background:new 0 0 139.851 97.475;" xml:space="preserve">
<path id="youtube_x5F_alt_3_" style="fill:#FFFFFF;" d="M137.429,15.678c-1.713-7.437-7.796-12.923-15.117-13.741
	C104.971,0.001,87.42-0.008,69.946,0.001c-17.477-0.008-35.03,0-52.371,1.937C10.253,2.755,4.172,8.241,2.462,15.678
	C0.027,26.271,0,37.831,0,48.738c0,10.906,0,22.466,2.433,33.061c1.71,7.436,7.792,12.922,15.115,13.74
	c17.339,1.935,34.893,1.946,52.368,1.935c17.475,0.011,35.027,0,52.368-1.937c7.322-0.817,13.406-6.302,15.117-13.739
	c2.435-10.594,2.45-22.154,2.45-33.06C139.851,37.831,139.863,26.271,137.429,15.678z M55.257,67.802V29.025l36.973,19.387
	L55.257,67.802z"/>
<g id="XMLID_27_">
</g>
<g id="XMLID_28_">
</g>
<g id="XMLID_29_">
</g>
<g id="XMLID_30_">
</g>
<g id="XMLID_31_">
</g>
<g id="XMLID_32_">
</g>
</svg>
